# xmcd
#
# Track frame offsets:
#	150
#	20250
#	33085
#	48580
#	64708
#	80025
#	94320
#
# Disc length: 1525 seconds
#
# Revision: 0
# Processed by: cddbd v1.5.1PL0 Copyright (c) Steve Scherf et al.
# Submitted via: dBpowerAMP V4.0
#
DISCID=5205f307
DTITLE=Various Artist - MaCountry #3
DYEAR=1900
DGENRE=Country
TTITLE0=I Swear - mixed
TTITLE1=I Doubt If It Does To You - 
TTITLE2=Stumblin - 
TTITLE3=Hey Cinderella - 
TTITLE4=She Never Cried - 
TTITLE5=Crying Time - 
TTITLE6=I Don't Need Anything For Christmas - 
EXTD=MaCountry - CD #3 - Nov. '93
EXTT0=
EXTT1=
EXTT2=
EXTT3=
EXTT4=
EXTT5=
EXTT6=
PLAYORDER=
